<mxfile host="app.diagrams.net" modified="2021-08-18T18:23:16.292Z" agent="5.0 (Windows NT 10.0; Win64; x64) AppleWebKit/537.36 (KHTML, like Gecko) Chrome/92.0.4515.159 Safari/537.36" etag="FXTw2NhMv9O56TImis1d" version="14.9.7" type="github">
  <diagram id="C5RBs43oDa-KdzZeNtuy" name="Page-1">
    <mxGraphModel dx="982" dy="534" grid="1" gridSize="10" guides="1" tooltips="1" connect="1" arrows="1" fold="1" page="1" pageScale="1" pageWidth="827" pageHeight="1169" math="0" shadow="0">
      <root>
        <mxCell id="WIyWlLk6GJQsqaUBKTNV-0" />
        <mxCell id="WIyWlLk6GJQsqaUBKTNV-1" parent="WIyWlLk6GJQsqaUBKTNV-0" />
        <mxCell id="vOszgldaXBckMy9Juao9-3" value="printf()" style="shape=parallelogram;perimeter=parallelogramPerimeter;whiteSpace=wrap;html=1;fixedSize=1;" vertex="1" parent="WIyWlLk6GJQsqaUBKTNV-1">
          <mxGeometry x="390" y="180" width="120" height="40" as="geometry" />
        </mxCell>
        <mxCell id="vOszgldaXBckMy9Juao9-6" style="edgeStyle=orthogonalEdgeStyle;rounded=0;orthogonalLoop=1;jettySize=auto;html=1;entryX=0.5;entryY=0;entryDx=0;entryDy=0;" edge="1" parent="WIyWlLk6GJQsqaUBKTNV-1" source="vOszgldaXBckMy9Juao9-4" target="vOszgldaXBckMy9Juao9-5">
          <mxGeometry relative="1" as="geometry" />
        </mxCell>
        <mxCell id="vOszgldaXBckMy9Juao9-4" value="begin" style="rounded=1;whiteSpace=wrap;html=1;" vertex="1" parent="WIyWlLk6GJQsqaUBKTNV-1">
          <mxGeometry x="250" y="30" width="120" height="40" as="geometry" />
        </mxCell>
        <mxCell id="vOszgldaXBckMy9Juao9-7" style="edgeStyle=orthogonalEdgeStyle;rounded=0;orthogonalLoop=1;jettySize=auto;html=1;exitX=1;exitY=0.5;exitDx=0;exitDy=0;" edge="1" parent="WIyWlLk6GJQsqaUBKTNV-1" source="vOszgldaXBckMy9Juao9-5" target="vOszgldaXBckMy9Juao9-3">
          <mxGeometry relative="1" as="geometry">
            <mxPoint x="370" y="110" as="sourcePoint" />
            <Array as="points">
              <mxPoint x="450" y="135" />
            </Array>
          </mxGeometry>
        </mxCell>
        <mxCell id="vOszgldaXBckMy9Juao9-8" value="no" style="edgeLabel;html=1;align=center;verticalAlign=middle;resizable=0;points=[];" vertex="1" connectable="0" parent="vOszgldaXBckMy9Juao9-7">
          <mxGeometry x="0.3825" y="1" relative="1" as="geometry">
            <mxPoint x="-37" y="-16" as="offset" />
          </mxGeometry>
        </mxCell>
        <mxCell id="vOszgldaXBckMy9Juao9-10" value="yes&amp;nbsp;" style="edgeStyle=orthogonalEdgeStyle;rounded=0;orthogonalLoop=1;jettySize=auto;html=1;exitX=0.5;exitY=1;exitDx=0;exitDy=0;entryX=0.5;entryY=0;entryDx=0;entryDy=0;" edge="1" parent="WIyWlLk6GJQsqaUBKTNV-1" source="vOszgldaXBckMy9Juao9-5" target="vOszgldaXBckMy9Juao9-9">
          <mxGeometry relative="1" as="geometry" />
        </mxCell>
        <mxCell id="vOszgldaXBckMy9Juao9-5" value="i have $10" style="rhombus;whiteSpace=wrap;html=1;" vertex="1" parent="WIyWlLk6GJQsqaUBKTNV-1">
          <mxGeometry x="267.5" y="110" width="85" height="50" as="geometry" />
        </mxCell>
        <mxCell id="vOszgldaXBckMy9Juao9-13" style="edgeStyle=orthogonalEdgeStyle;rounded=0;orthogonalLoop=1;jettySize=auto;html=1;entryX=0.5;entryY=0;entryDx=0;entryDy=0;" edge="1" parent="WIyWlLk6GJQsqaUBKTNV-1" source="vOszgldaXBckMy9Juao9-9" target="vOszgldaXBckMy9Juao9-11">
          <mxGeometry relative="1" as="geometry" />
        </mxCell>
        <mxCell id="vOszgldaXBckMy9Juao9-9" value="wait a moment" style="shape=parallelogram;perimeter=parallelogramPerimeter;whiteSpace=wrap;html=1;fixedSize=1;" vertex="1" parent="WIyWlLk6GJQsqaUBKTNV-1">
          <mxGeometry x="250" y="240" width="120" height="60" as="geometry" />
        </mxCell>
        <mxCell id="vOszgldaXBckMy9Juao9-12" style="edgeStyle=orthogonalEdgeStyle;rounded=0;orthogonalLoop=1;jettySize=auto;html=1;entryX=0.5;entryY=1;entryDx=0;entryDy=0;" edge="1" parent="WIyWlLk6GJQsqaUBKTNV-1" source="vOszgldaXBckMy9Juao9-11" target="vOszgldaXBckMy9Juao9-15">
          <mxGeometry relative="1" as="geometry">
            <mxPoint x="160" y="210" as="targetPoint" />
          </mxGeometry>
        </mxCell>
        <mxCell id="vOszgldaXBckMy9Juao9-18" style="edgeStyle=orthogonalEdgeStyle;rounded=0;orthogonalLoop=1;jettySize=auto;html=1;exitX=0.5;exitY=1;exitDx=0;exitDy=0;entryX=0.5;entryY=0;entryDx=0;entryDy=0;" edge="1" parent="WIyWlLk6GJQsqaUBKTNV-1" source="vOszgldaXBckMy9Juao9-11" target="vOszgldaXBckMy9Juao9-17">
          <mxGeometry relative="1" as="geometry" />
        </mxCell>
        <mxCell id="vOszgldaXBckMy9Juao9-11" value="buy now?" style="rhombus;whiteSpace=wrap;html=1;" vertex="1" parent="WIyWlLk6GJQsqaUBKTNV-1">
          <mxGeometry x="270" y="340" width="80" height="80" as="geometry" />
        </mxCell>
        <mxCell id="vOszgldaXBckMy9Juao9-16" style="edgeStyle=orthogonalEdgeStyle;rounded=0;orthogonalLoop=1;jettySize=auto;html=1;entryX=0.5;entryY=0;entryDx=0;entryDy=0;" edge="1" parent="WIyWlLk6GJQsqaUBKTNV-1" source="vOszgldaXBckMy9Juao9-15" target="vOszgldaXBckMy9Juao9-9">
          <mxGeometry relative="1" as="geometry" />
        </mxCell>
        <mxCell id="vOszgldaXBckMy9Juao9-15" value="printf()" style="shape=parallelogram;perimeter=parallelogramPerimeter;whiteSpace=wrap;html=1;fixedSize=1;" vertex="1" parent="WIyWlLk6GJQsqaUBKTNV-1">
          <mxGeometry x="80" y="200" width="120" height="40" as="geometry" />
        </mxCell>
        <mxCell id="vOszgldaXBckMy9Juao9-20" style="edgeStyle=orthogonalEdgeStyle;rounded=0;orthogonalLoop=1;jettySize=auto;html=1;entryX=0.5;entryY=0;entryDx=0;entryDy=0;" edge="1" parent="WIyWlLk6GJQsqaUBKTNV-1" source="vOszgldaXBckMy9Juao9-17" target="vOszgldaXBckMy9Juao9-19">
          <mxGeometry relative="1" as="geometry" />
        </mxCell>
        <mxCell id="vOszgldaXBckMy9Juao9-17" value="good" style="rounded=0;whiteSpace=wrap;html=1;" vertex="1" parent="WIyWlLk6GJQsqaUBKTNV-1">
          <mxGeometry x="250" y="440" width="120" height="30" as="geometry" />
        </mxCell>
        <mxCell id="vOszgldaXBckMy9Juao9-19" value="over" style="rounded=1;whiteSpace=wrap;html=1;" vertex="1" parent="WIyWlLk6GJQsqaUBKTNV-1">
          <mxGeometry x="250" y="490" width="120" height="60" as="geometry" />
        </mxCell>
      </root>
    </mxGraphModel>
  </diagram>
</mxfile>
